<?xml version="1.0" standalone="no"?>
<!DOCTYPE svg PUBLIC "-//W3C//DTD SVG 20010904//EN"
 "http://www.w3.org/TR/2001/REC-SVG-20010904/DTD/svg10.dtd">
<svg version="1.0" xmlns="http://www.w3.org/2000/svg"
 width="512.000000pt" height="512.000000pt" viewBox="0 0 512.000000 512.000000"
 preserveAspectRatio="xMidYMid meet">

<g transform="translate(0.000000,512.000000) scale(0.100000,-0.100000)"
fill="#000000" stroke="none">
<path d="M0 2516 c0 -1036 2 -1088 45 -1203 64 -170 217 -315 395 -376 64 -22
72 -22 773 -25 l707 -3 0 -174 0 -175 -177 0 c-98 0 -195 -5 -216 -11 -80 -22
-146 -111 -147 -197 0 -80 40 -145 115 -185 l40 -22 1025 0 1025 0 40 22 c75
40 115 105 115 185 -1 86 -67 175 -147 197 -21 6 -118 11 -215 11 l-178 0 0
175 0 174 708 3 c700 3 708 3 772 25 178 61 331 206 395 376 43 115 45 167 45
1203 l0 984 -210 0 -210 0 0 -1007 c0 -959 -1 -1010 -19 -1049 -22 -49 -78
-97 -130 -113 -55 -16 -3927 -16 -3982 0 -52 16 -108 64 -130 113 -18 39 -19
90 -19 1049 l0 1007 -210 0 -210 0 0 -984z m2780 -1781 l0 -175 -220 0 -220 0
0 175 0 175 220 0 220 0 0 -175z"/>
<path d="M1314 3445 l-26 -55 4 -308 c4 -302 4 -308 30 -374 38 -101 86 -174
155 -237 219 -202 551 -202 767 0 75 70 119 134 155 227 25 66 25 71 29 387 3
317 3 320 -20 365 l-23 45 -157 3 -156 2 -24 -37 c-22 -37 -23 -45 -28 -333
-6 -331 -7 -338 -80 -379 -73 -41 -155 -23 -207 46 l-28 36 -5 296 c-5 276 -6
298 -26 331 l-20 35 -157 3 -158 3 -25 -56z"/>
<path d="M2622 3488 c-43 -55 -54 -139 -27 -206 10 -23 75 -96 168 -190 l152
-152 -157 -158 c-86 -86 -162 -170 -168 -185 -18 -49 -12 -128 13 -171 37 -65
88 -99 156 -104 99 -7 120 5 291 174 l156 153 144 -145 c85 -86 161 -154 185
-165 174 -81 354 108 265 281 -6 14 -78 91 -158 172 l-145 147 148 153 c81 84
154 168 162 187 22 52 19 124 -9 173 l-23 43 -150 3 -150 2 -130 -130 c-71
-71 -134 -130 -140 -130 -6 0 -69 59 -140 130 l-130 130 -151 0 c-109 0 -154
-3 -162 -12z"/>
</g>
</svg>
